<?xml version="1.0" encoding="UTF-8" standalone="no"?>
<svg
   xmlns:dc="http://purl.org/dc/elements/1.1/"
   xmlns:cc="http://creativecommons.org/ns#"
   xmlns:rdf="http://www.w3.org/1999/02/22-rdf-syntax-ns#"
   xmlns:svg="http://www.w3.org/2000/svg"
   xmlns="http://www.w3.org/2000/svg"
   xmlns:sodipodi="http://sodipodi.sourceforge.net/DTD/sodipodi-0.dtd"
   xmlns:inkscape="http://www.inkscape.org/namespaces/inkscape"
   id="svg2250"
   version="1.1"
   viewBox="0 0 75.999997 75.999997"
   height="76mm"
   width="76mm"
   sodipodi:docname="sticker-7cm.svg"
   inkscape:version="0.92.2 5c3e80d, 2017-08-06">
  <sodipodi:namedview
     pagecolor="#ffffff"
     bordercolor="#666666"
     borderopacity="1"
     objecttolerance="10"
     gridtolerance="10"
     guidetolerance="10"
     inkscape:pageopacity="0"
     inkscape:pageshadow="2"
     inkscape:window-width="1280"
     inkscape:window-height="755"
     id="namedview974"
     showgrid="false"
     inkscape:zoom="1.1619191"
     inkscape:cx="186.14344"
     inkscape:cy="102.76286"
     inkscape:window-x="0"
     inkscape:window-y="1"
     inkscape:window-maximized="1"
     inkscape:current-layer="text57" />
  <defs
     id="defs2244" />
  <metadata
     id="metadata2247">
    <rdf:RDF>
      <cc:Work
         rdf:about="">
        <dc:format>image/svg+xml</dc:format>
        <dc:type
           rdf:resource="http://purl.org/dc/dcmitype/StillImage" />
        <dc:title />
        <cc:license
           rdf:resource="http://creativecommons.org/licenses/by-nc-sa/4.0/" />
      </cc:Work>
      <cc:License
         rdf:about="http://creativecommons.org/licenses/by-nc-sa/4.0/">
        <cc:permits
           rdf:resource="http://creativecommons.org/ns#Reproduction" />
        <cc:permits
           rdf:resource="http://creativecommons.org/ns#Distribution" />
        <cc:requires
           rdf:resource="http://creativecommons.org/ns#Notice" />
        <cc:requires
           rdf:resource="http://creativecommons.org/ns#Attribution" />
        <cc:prohibits
           rdf:resource="http://creativecommons.org/ns#CommercialUse" />
        <cc:permits
           rdf:resource="http://creativecommons.org/ns#DerivativeWorks" />
        <cc:requires
           rdf:resource="http://creativecommons.org/ns#ShareAlike" />
      </cc:License>
    </rdf:RDF>
  </metadata>
  <g
     style="display:inline"
     id="layer1">
    <path
       style="fill:#262626;fill-opacity:1;stroke:none;stroke-width:0.26458332;stroke-miterlimit:4;stroke-dasharray:none;stroke-opacity:1"
       d="M 0,-3.9418537e-6 H 75.999992 V 75.999988 H 0 Z"
       id="rect52" />
  </g>
  <g
     transform="translate(0,-285.90549)"
     style="display:inline"
     id="layer2">
    <g
       style="stroke-width:0.62499869"
       transform="matrix(1.6000034,0,0,1.6000034,-5.2000241,-211.94439)"
       id="g64">
      <path
         style="display:inline;opacity:1;vector-effect:none;fill:#262626;fill-opacity:1;stroke:none;stroke-width:1.53659427;stroke-linecap:butt;stroke-linejoin:miter;stroke-miterlimit:4;stroke-dasharray:none;stroke-dashoffset:0;stroke-opacity:1"
         d="M 46.999916,334.90549 A 19.999958,19.999958 0 0 1 26.999958,354.90545 19.999958,19.999958 0 0 1 7,334.90549 19.999958,19.999958 0 0 1 26.999958,314.90553 19.999958,19.999958 0 0 1 46.999916,334.90549 Z"
         id="path852" />
      <g
         style="display:inline;stroke-width:0.62499869"
         id="g883"
         transform="translate(-6.4388655e-7,0.18837332)">
        <path
           style="fill:#14b967;fill-opacity:1;stroke:none;stroke-width:0.04882797"
           d="m 15.666485,343.96216 c 1.022851,0.59054 2.045702,1.18109 3.068553,1.77163 l 0.423102,-0.73283 c 0.532364,-0.92203 0.927588,-1.92485 1.309001,-2.93903 0.38148,1.01431 0.776542,2.01726 1.30896,2.93929 l 0.423068,0.73273 c 1.022898,-0.59045 2.045714,-1.18102 3.068535,-1.77159 l -0.423068,-0.73273 c -0.525088,-0.90947 -1.18508,-1.74271 -1.854954,-2.58255 1.062224,0.1602 2.113923,0.31546 3.16408,0.31538 l 0.846172,-7e-5 c 7.6e-5,-1.18108 3.5e-5,-2.36216 -1.4e-5,-3.54324 l -0.846095,-10e-6 c -1.064721,-1e-5 -2.130931,0.15918 -3.19996,0.33569 0.687639,-0.83769 1.358643,-1.68132 1.890936,-2.60343 l 0.423102,-0.73283 c -1.022852,-0.59054 -2.045702,-1.18108 -3.068553,-1.77163 l -0.423102,0.73284 c -0.53236,0.92207 -0.927517,1.92491 -1.309139,2.93932 -0.381549,-1.01413 -0.77692,-2.01686 -1.309305,-2.93895 l -0.422836,-0.73311 c -1.022898,0.59044 -2.045717,1.18102 -3.06854,1.77159 l 0.422993,0.73286 c 0.5251,0.90956 1.185324,1.74288 1.855366,2.58277 -1.062406,-0.16032 -2.113998,-0.31533 -3.164302,-0.31531 l -0.846167,8e-5 c -9.4e-5,1.18108 -3.2e-5,2.36215 2e-5,3.54323 l 0.846091,2e-5 c 1.064684,3e-5 2.130765,-0.15916 3.199957,-0.33607 -0.687638,0.83739 -1.35844,1.68102 -1.62462,2.14207 z"
           id="path6107-4-3" />
        <path
           style="fill:#808080;fill-opacity:1;stroke:none;stroke-width:0.04882797"
           d="m 28.732239,343.96216 c 1.022851,0.59054 2.045702,1.18109 3.068553,1.77163 l 0.423101,-0.73283 c 0.532365,-0.92203 0.927589,-1.92485 1.309002,-2.93903 0.38148,1.01431 0.776542,2.01726 1.308959,2.93929 l 0.423069,0.73273 c 1.022897,-0.59045 2.045715,-1.18102 3.068536,-1.77159 l -0.423068,-0.73273 c -0.525088,-0.90947 -1.185081,-1.74271 -1.854955,-2.58255 1.062223,0.1602 2.113923,0.31546 3.164081,0.31538 l 0.846169,-7e-5 c 7.9e-5,-1.18108 3.6e-5,-2.36216 -1.1e-5,-3.54324 l -0.846095,-10e-6 c -1.064722,-1e-5 -2.130931,0.15918 -3.199962,0.33569 0.687641,-0.83769 1.358643,-1.68132 1.890938,-2.60343 l 0.423101,-0.73283 c -1.022853,-0.59054 -2.045701,-1.18108 -3.068552,-1.77163 l -0.423102,0.73284 c -0.53236,0.92207 -0.927518,1.92491 -1.309139,2.93932 -0.38155,-1.01413 -0.776919,-2.01686 -1.309306,-2.93895 l -0.422837,-0.73311 c -1.022895,0.59044 -2.045715,1.18102 -3.068538,1.77159 l 0.422992,0.73286 c 0.525101,0.90956 1.185326,1.74288 1.855366,2.58277 -1.062407,-0.16032 -2.113997,-0.31533 -3.164302,-0.31531 l -0.846166,8e-5 c -7.9e-5,1.18108 -3.4e-5,2.36215 2e-5,3.54323 l 0.846089,2e-5 c 1.064685,3e-5 2.130766,-0.15916 3.199958,-0.33607 -0.687638,0.83739 -1.35844,1.68102 -1.62462,2.14207 z"
           id="path6099-3-7" />
        <path
           style="fill:#b3b3b3;fill-opacity:1;stroke:none;stroke-width:0.04882797"
           d="m 22.199156,332.64658 c 1.022852,0.59055 2.045703,1.18109 3.068554,1.77164 l 0.423101,-0.73284 c 0.532365,-0.92203 0.927588,-1.92484 1.309001,-2.93902 0.38148,1.01431 0.776543,2.01726 1.308962,2.93929 l 0.423068,0.73272 c 1.022895,-0.59044 2.045712,-1.18102 3.068534,-1.77159 l -0.423069,-0.73272 c -0.525087,-0.90948 -1.185079,-1.74271 -1.854954,-2.58256 1.062225,0.16021 2.113925,0.31546 3.16408,0.31539 l 0.846173,-8e-5 c 7.6e-5,-1.18108 3.4e-5,-2.36215 -1.5e-5,-3.54323 l -0.846095,-2e-5 c -1.064719,0 -2.13093,0.15918 -3.199959,0.33569 0.687639,-0.83768 1.358641,-1.68131 1.890936,-2.60342 l 0.423101,-0.73283 c -1.022851,-0.59054 -2.045701,-1.18109 -3.068552,-1.77163 l -0.423102,0.73283 c -0.53236,0.92208 -0.927516,1.92491 -1.309139,2.93933 -0.38155,-1.01413 -0.77692,-2.01687 -1.309305,-2.93895 l -0.422836,-0.73312 c -1.022898,0.59044 -2.045717,1.18103 -3.068541,1.7716 l 0.422994,0.73285 c 0.5251,0.90957 1.185324,1.74288 1.855366,2.58278 -1.062406,-0.16032 -2.113998,-0.31534 -3.164302,-0.31532 l -0.846167,8e-5 c -7.9e-5,1.18108 -3.2e-5,2.36216 2e-5,3.54323 l 0.84609,3e-5 c 1.064684,2e-5 2.130765,-0.15917 3.199957,-0.33608 -0.687637,0.8374 -1.35844,1.68103 -1.624619,2.14207 z"
           id="path6115-9-1" />
      </g>
    </g>
  </g>
  <g
     style="display:inline"
     id="layer3">
    <g
       aria-label="foss-ag.de"
       style="font-style:normal;font-variant:normal;font-weight:normal;font-stretch:normal;font-size:1.76388884px;line-height:125%;font-family:'Clear Sans';-inkscape-font-specification:'Clear Sans';letter-spacing:0px;word-spacing:0px;fill:#ffffff;fill-opacity:1;stroke:none;stroke-width:0.26458332px;stroke-linecap:butt;stroke-linejoin:miter;stroke-opacity:1"
       id="text57">
      <path
         d="m 34.453273,62.823724 q -0.02498,-0.01292 -0.06287,-0.02239 -0.0379,-0.0095 -0.06804,-0.0095 -0.07493,0 -0.104214,0.03876 -0.02928,0.0379 -0.02928,0.149862 v 0.08785 h 0.200677 v 0.124024 h -0.200677 v 0.779453 h -0.148139 v -0.779453 h -0.132636 v -0.124024 h 0.132636 v -0.08785 q 0,-0.163642 0.06115,-0.240296 0.06201,-0.07751 0.217041,-0.07751 0.09732,0 0.174839,0.03359 z"
         style="font-style:normal;font-variant:normal;font-weight:normal;font-stretch:normal;font-size:1.76388884px;font-family:'Clear Sans';-inkscape-font-specification:'Clear Sans';fill:#ffffff;stroke-width:0.26458332px"
         id="path978" />
      <path
         d="m 35.311102,63.522217 q 0,0.235128 -0.101631,0.355706 -0.100769,0.120578 -0.294555,0.120578 -0.193787,0 -0.296279,-0.118856 -0.102491,-0.119717 -0.102491,-0.357428 0,-0.242018 0.102491,-0.360874 0.103353,-0.118856 0.296279,-0.118856 0.194648,0 0.295417,0.12144 0.100769,0.120578 0.100769,0.35829 z m -0.153307,0 q 0,-0.184313 -0.06115,-0.267856 -0.06029,-0.08354 -0.181728,-0.08354 -0.124885,0 -0.185174,0.08441 -0.06029,0.08354 -0.06029,0.266995 0,0.176561 0.05771,0.261827 0.05857,0.08527 0.187758,0.08527 0.123162,0 0.18259,-0.0844 0.06029,-0.08441 0.06029,-0.262688 z"
         style="font-style:normal;font-variant:normal;font-weight:normal;font-stretch:normal;font-size:1.76388884px;font-family:'Clear Sans';-inkscape-font-specification:'Clear Sans';fill:#ffffff;stroke-width:0.26458332px"
         id="path980" />
      <path
         d="m 36.174959,63.728061 q 0,0.126608 -0.08957,0.198955 -0.08957,0.07148 -0.254937,0.07148 -0.112827,0 -0.2024,-0.0422 -0.08957,-0.04306 -0.130913,-0.120579 l 0.118856,-0.07235 q 0.06804,0.109382 0.218763,0.109382 0.09819,0 0.146417,-0.03703 0.04909,-0.0379 0.04909,-0.10163 0,-0.0379 -0.01723,-0.06115 -0.01723,-0.02412 -0.0534,-0.04134 -0.03617,-0.01809 -0.148139,-0.04823 -0.161058,-0.03704 -0.227377,-0.102491 -0.06546,-0.06546 -0.06546,-0.173978 0,-0.119717 0.08613,-0.192064 0.08613,-0.07235 0.238573,-0.07235 0.117994,0 0.198093,0.04651 0.0801,0.04651 0.117133,0.111966 l -0.117994,0.07235 q -0.07062,-0.105937 -0.200677,-0.105937 -0.07407,0 -0.125746,0.03273 -0.05082,0.03273 -0.05082,0.101631 0,0.06115 0.04479,0.08871 0.04479,0.02756 0.140388,0.05082 0.153306,0.03962 0.211873,0.07407 0.05857,0.03445 0.08613,0.08527 0.02842,0.04995 0.02842,0.127468 z"
         style="font-style:normal;font-variant:normal;font-weight:normal;font-stretch:normal;font-size:1.76388884px;font-family:'Clear Sans';-inkscape-font-specification:'Clear Sans';fill:#ffffff;stroke-width:0.26458332px"
         id="path982" />
      <path
         d="m 37.029343,63.728061 q 0,0.126608 -0.08957,0.198955 -0.08957,0.07148 -0.254937,0.07148 -0.112826,0 -0.202399,-0.0422 -0.08957,-0.04306 -0.130914,-0.120579 l 0.118856,-0.07235 q 0.06804,0.109382 0.218764,0.109382 0.09819,0 0.146416,-0.03703 0.04909,-0.0379 0.04909,-0.10163 0,-0.0379 -0.01723,-0.06115 -0.01723,-0.02412 -0.0534,-0.04134 -0.03617,-0.01809 -0.148139,-0.04823 -0.161058,-0.03704 -0.227376,-0.102491 -0.06546,-0.06546 -0.06546,-0.173978 0,-0.119717 0.08613,-0.192064 0.08613,-0.07235 0.238572,-0.07235 0.117995,0 0.198093,0.04651 0.0801,0.04651 0.117134,0.111966 l -0.117995,0.07235 q -0.07062,-0.105937 -0.200677,-0.105937 -0.07407,0 -0.125746,0.03273 -0.05082,0.03273 -0.05082,0.101631 0,0.06115 0.04479,0.08871 0.04479,0.02756 0.140388,0.05082 0.153307,0.03962 0.211873,0.07407 0.05857,0.03445 0.08613,0.08527 0.02842,0.04995 0.02842,0.127468 z"
         style="font-style:normal;font-variant:normal;font-weight:normal;font-stretch:normal;font-size:1.76388884px;font-family:'Clear Sans';-inkscape-font-specification:'Clear Sans';fill:#ffffff;stroke-width:0.26458332px"
         id="path984" />
      <path
         d="M 37.207627,63.592841 V 63.444702 H 37.7442 v 0.148139 z"
         style="font-style:normal;font-variant:normal;font-weight:normal;font-stretch:normal;font-size:1.76388884px;font-family:'Clear Sans';-inkscape-font-specification:'Clear Sans';fill:#ffffff;stroke-width:0.26458332px"
         id="path986" />
      <path
         d="m 38.492647,63.971802 v -0.112827 q -0.0689,0.06029 -0.138665,0.09991 -0.06976,0.03962 -0.157613,0.03962 -0.129191,0 -0.199815,-0.07838 -0.06976,-0.07924 -0.06976,-0.202399 0,-0.09302 0.03617,-0.154168 0.03704,-0.06201 0.105937,-0.09732 0.06976,-0.03617 0.201538,-0.05168 l 0.222208,-0.01981 v -0.04393 q 0,-0.104214 -0.05857,-0.14211 -0.05771,-0.0379 -0.160197,-0.0379 -0.0913,0 -0.141249,0.03187 -0.04909,0.03187 -0.07062,0.0689 l -0.121439,-0.07407 q 0.04134,-0.07493 0.125746,-0.11455 0.08527,-0.04048 0.211012,-0.04048 0.194648,0 0.279053,0.07062 0.0844,0.07062 0.0844,0.244602 v 0.614088 z m 0,-0.458198 -0.144694,0.01378 q -0.147278,0.01292 -0.207567,0.05771 -0.06029,0.04393 -0.06029,0.129191 0,0.08096 0.04048,0.116272 0.04048,0.03531 0.12144,0.03531 0.03359,0 0.06632,-0.01206 0.03273,-0.01292 0.06459,-0.03101 0.03187,-0.01895 0.06115,-0.0422 0.03014,-0.02412 0.05857,-0.04651 z"
         style="font-style:normal;font-variant:normal;font-weight:normal;font-stretch:normal;font-size:1.76388884px;font-family:'Clear Sans';-inkscape-font-specification:'Clear Sans';fill:#ffffff;stroke-width:0.26458332px"
         id="path988" />
      <path
         d="m 39.645031,63.951992 q 0,0.181729 -0.09043,0.27044 -0.08957,0.08957 -0.298001,0.08957 -0.198954,0 -0.328145,-0.08441 l 0.05512,-0.119717 q 0.116272,0.08096 0.273024,0.08096 0.126607,0 0.18259,-0.0534 0.05684,-0.05254 0.05684,-0.173978 V 63.85553 q -0.05082,0.04909 -0.12144,0.08268 -0.07062,0.03359 -0.153306,0.03359 -0.166226,0 -0.253215,-0.117995 -0.08699,-0.118856 -0.08699,-0.342787 0,-0.220486 0.09732,-0.344509 0.09732,-0.124024 0.266133,-0.124024 0.136943,0 0.251492,0.09991 v -0.07407 h 0.149 z m -0.149,-0.680406 q -0.117994,-0.09732 -0.232544,-0.09732 -0.112827,0 -0.171393,0.08785 -0.05771,0.08785 -0.05771,0.245463 0,0.173977 0.05426,0.253215 0.05426,0.07838 0.161058,0.07838 0.124023,0 0.246324,-0.116272 z"
         style="font-style:normal;font-variant:normal;font-weight:normal;font-stretch:normal;font-size:1.76388884px;font-family:'Clear Sans';-inkscape-font-specification:'Clear Sans';fill:#ffffff;stroke-width:0.26458332px"
         id="path990" />
      <path
         d="m 40.136819,63.887397 q 0,0.05426 -0.02584,0.07579 -0.02498,0.02067 -0.0801,0.02067 -0.06115,0 -0.08268,-0.02498 -0.02067,-0.02584 -0.02067,-0.07149 0,-0.05168 0.02325,-0.07407 0.02412,-0.02325 0.0801,-0.02325 0.05857,0 0.08182,0.02325 0.02412,0.02239 0.02412,0.07407 z"
         style="font-style:normal;font-variant:normal;font-weight:normal;font-stretch:normal;font-size:1.76388884px;font-family:'Clear Sans';-inkscape-font-specification:'Clear Sans';fill:#ffffff;stroke-width:0.26458332px"
         id="path992" />
      <path
         d="m 40.953306,63.971802 v -0.08957 q -0.05082,0.04909 -0.1223,0.08268 -0.07149,0.03359 -0.152446,0.03359 -0.162781,0 -0.251492,-0.122301 -0.08871,-0.123162 -0.08871,-0.348816 0,-0.221347 0.09646,-0.353122 0.09646,-0.131775 0.266995,-0.131775 0.136942,0 0.251491,0.09991 v -0.45303 h 0.149001 v 1.282437 z m 0,-0.700216 q -0.117994,-0.09732 -0.232543,-0.09732 -0.100769,0 -0.165365,0.08527 -0.06373,0.0844 -0.06373,0.264411 0,0.341926 0.215318,0.341926 0.07062,0 0.134359,-0.03531 0.06459,-0.03531 0.111965,-0.08096 z"
         style="font-style:normal;font-variant:normal;font-weight:normal;font-stretch:normal;font-size:1.76388884px;font-family:'Clear Sans';-inkscape-font-specification:'Clear Sans';fill:#ffffff;stroke-width:0.26458332px"
         id="path994" />
      <path
         d="m 41.504522,63.53772 q 0,0.179145 0.06115,0.255798 0.06115,0.07579 0.19637,0.07579 0.06029,0 0.105937,-0.02498 0.04565,-0.02584 0.08785,-0.08268 l 0.1223,0.07579 q -0.05168,0.07751 -0.125745,0.119717 -0.07407,0.04134 -0.200677,0.04134 -0.201538,0 -0.301446,-0.117133 -0.09905,-0.117133 -0.09905,-0.353984 0,-0.248046 0.09646,-0.366041 0.09732,-0.118856 0.292833,-0.118856 0.1757,0 0.26355,0.101631 0.08785,0.100769 0.08785,0.310919 v 0.08268 z m 0.442695,-0.116272 q -0.0017,-0.12144 -0.05168,-0.188619 -0.04909,-0.06718 -0.160197,-0.06718 -0.105936,0 -0.159335,0.06115 -0.05254,0.06029 -0.06976,0.194648 z"
         style="font-style:normal;font-variant:normal;font-weight:normal;font-stretch:normal;font-size:1.76388884px;font-family:'Clear Sans';-inkscape-font-specification:'Clear Sans';fill:#ffffff;stroke-width:0.26458332px"
         id="path996" />
    </g>
  </g>
</svg>
