<?xml version="1.0" encoding="UTF-8" standalone="no"?>
<!-- Created with Inkscape (http://www.inkscape.org/) -->

<svg
   xmlns:dc="http://purl.org/dc/elements/1.1/"
   xmlns:cc="http://creativecommons.org/ns#"
   xmlns:rdf="http://www.w3.org/1999/02/22-rdf-syntax-ns#"
   xmlns:svg="http://www.w3.org/2000/svg"
   xmlns="http://www.w3.org/2000/svg"
   xmlns:sodipodi="http://sodipodi.sourceforge.net/DTD/sodipodi-0.dtd"
   xmlns:inkscape="http://www.inkscape.org/namespaces/inkscape"
   width="76mm"
   height="76mm"
   viewBox="0 0 75.999997 75.999997"
   version="1.1"
   id="svg2250"
   inkscape:version="0.92.2 5c3e80d, 2017-08-06"
   sodipodi:docname="sticker-7cm.ink.svg"
   inkscape:export-filename="/run/media/scosh/Project Files/Git/foss-ag/design_playground/sticker/sticker-klein.png"
   inkscape:export-xdpi="300.09631"
   inkscape:export-ydpi="300.09631">
  <defs
     id="defs2244" />
  <sodipodi:namedview
     id="base"
     pagecolor="#ffffff"
     bordercolor="#666666"
     borderopacity="1.0"
     inkscape:pageopacity="0.0"
     inkscape:pageshadow="2"
     inkscape:zoom="1.2944071"
     inkscape:cx="133.17673"
     inkscape:cy="109.66117"
     inkscape:document-units="mm"
     inkscape:current-layer="layer3"
     showgrid="false"
     borderlayer="true"
     inkscape:showpageshadow="false"
     fit-margin-top="0"
     fit-margin-left="0"
     fit-margin-right="0"
     fit-margin-bottom="0"
     inkscape:snap-bbox="true"
     inkscape:bbox-paths="true"
     inkscape:bbox-nodes="true"
     inkscape:snap-bbox-edge-midpoints="true"
     inkscape:snap-bbox-midpoints="true"
     inkscape:object-paths="true"
     inkscape:snap-intersection-paths="true"
     inkscape:snap-smooth-nodes="true"
     inkscape:snap-midpoints="true"
     inkscape:snap-object-midpoints="true"
     inkscape:snap-center="true"
     inkscape:snap-text-baseline="true"
     inkscape:snap-page="true"
     inkscape:window-width="1280"
     inkscape:window-height="755"
     inkscape:window-x="0"
     inkscape:window-y="1"
     inkscape:window-maximized="1"
     inkscape:snap-global="true"
     units="mm"
     inkscape:measure-start="0,0"
     inkscape:measure-end="0,0"
     showguides="true"
     inkscape:pagecheckerboard="true"
     inkscape:guide-bbox="true">
    <sodipodi:guide
       position="5.9999996,62.547945"
       orientation="1,0"
       id="guide819"
       inkscape:locked="false"
       inkscape:label=""
       inkscape:color="rgb(255,0,100)" />
    <sodipodi:guide
       position="70.000001,58.255439"
       orientation="1,0"
       id="guide821"
       inkscape:locked="false"
       inkscape:label=""
       inkscape:color="rgb(255,0,100)" />
    <sodipodi:guide
       position="25.755036,69.999969"
       orientation="0,1"
       id="guide823"
       inkscape:locked="false"
       inkscape:label=""
       inkscape:color="rgb(255,0,100)" />
    <sodipodi:guide
       position="64.38759,5.9999991"
       orientation="0,1"
       id="guide825"
       inkscape:locked="false"
       inkscape:label=""
       inkscape:color="rgb(255,0,100)" />
    <sodipodi:guide
       position="9.9999996,58.051034"
       orientation="1,0"
       id="guide843"
       inkscape:locked="false"
       inkscape:label=""
       inkscape:color="rgb(255,224,0)" />
    <sodipodi:guide
       position="66.000001,46.195541"
       orientation="1,0"
       id="guide845"
       inkscape:locked="false"
       inkscape:label=""
       inkscape:color="rgb(255,224,0)" />
    <sodipodi:guide
       position="30.456352,65.999969"
       orientation="0,1"
       id="guide847"
       inkscape:locked="false"
       inkscape:label=""
       inkscape:color="rgb(255,224,0)" />
    <sodipodi:guide
       position="54.576148,9.9999991"
       orientation="0,1"
       id="guide849"
       inkscape:locked="false"
       inkscape:label=""
       inkscape:color="rgb(255,224,0)" />
  </sodipodi:namedview>
  <metadata
     id="metadata2247">
    <rdf:RDF>
      <cc:Work
         rdf:about="">
        <dc:format>image/svg+xml</dc:format>
        <dc:type
           rdf:resource="http://purl.org/dc/dcmitype/StillImage" />
        <dc:title></dc:title>
        <cc:license
           rdf:resource="http://creativecommons.org/licenses/by-nc-sa/4.0/" />
      </cc:Work>
      <cc:License
         rdf:about="http://creativecommons.org/licenses/by-nc-sa/4.0/">
        <cc:permits
           rdf:resource="http://creativecommons.org/ns#Reproduction" />
        <cc:permits
           rdf:resource="http://creativecommons.org/ns#Distribution" />
        <cc:requires
           rdf:resource="http://creativecommons.org/ns#Notice" />
        <cc:requires
           rdf:resource="http://creativecommons.org/ns#Attribution" />
        <cc:prohibits
           rdf:resource="http://creativecommons.org/ns#CommercialUse" />
        <cc:permits
           rdf:resource="http://creativecommons.org/ns#DerivativeWorks" />
        <cc:requires
           rdf:resource="http://creativecommons.org/ns#ShareAlike" />
      </cc:License>
    </rdf:RDF>
  </metadata>
  <g
     inkscape:groupmode="layer"
     id="layer1"
     inkscape:label="hintergrund"
     style="display:inline"
     sodipodi:insensitive="true">
    <rect
       style="fill:#262626;fill-opacity:1;stroke:none;stroke-width:0.26458332;stroke-miterlimit:4;stroke-dasharray:none;stroke-opacity:1"
       id="rect52"
       width="75.999992"
       height="75.999992"
       x="0"
       y="-3.9418537e-06" />
  </g>
  <g
     inkscape:groupmode="layer"
     id="layer2"
     inkscape:label="main"
     style="display:inline"
     transform="translate(0,-285.90549)"
     sodipodi:insensitive="true">
    <g
       id="g64"
       transform="matrix(1.6000034,0,0,1.6000034,-5.2000241,-211.94439)"
       style="stroke-width:0.62499869">
      <circle
         r="19.999958"
         cy="334.90549"
         cx="26.999958"
         id="path852"
         style="display:inline;opacity:1;vector-effect:none;fill:#262626;fill-opacity:1;stroke:none;stroke-width:1.53659427;stroke-linecap:butt;stroke-linejoin:miter;stroke-miterlimit:4;stroke-dasharray:none;stroke-dashoffset:0;stroke-opacity:1" />
      <g
         transform="translate(-6.4388655e-7,0.18837332)"
         id="g883"
         style="display:inline;stroke-width:0.62499869">
        <path
           id="path6107-4-3"
           d="m 15.666485,343.96216 c 1.022851,0.59054 2.045702,1.18109 3.068553,1.77163 l 0.423102,-0.73283 c 0.532364,-0.92203 0.927588,-1.92485 1.309001,-2.93903 0.38148,1.01431 0.776542,2.01726 1.30896,2.93929 l 0.423068,0.73273 c 1.022898,-0.59045 2.045714,-1.18102 3.068535,-1.77159 l -0.423068,-0.73273 c -0.525088,-0.90947 -1.18508,-1.74271 -1.854954,-2.58255 1.062224,0.1602 2.113923,0.31546 3.16408,0.31538 l 0.846172,-7e-5 c 7.6e-5,-1.18108 3.5e-5,-2.36216 -1.4e-5,-3.54324 l -0.846095,-10e-6 c -1.064721,-1e-5 -2.130931,0.15918 -3.19996,0.33569 0.687639,-0.83769 1.358643,-1.68132 1.890936,-2.60343 l 0.423102,-0.73283 c -1.022852,-0.59054 -2.045702,-1.18108 -3.068553,-1.77163 l -0.423102,0.73284 c -0.53236,0.92207 -0.927517,1.92491 -1.309139,2.93932 -0.381549,-1.01413 -0.77692,-2.01686 -1.309305,-2.93895 l -0.422836,-0.73311 c -1.022898,0.59044 -2.045717,1.18102 -3.06854,1.77159 l 0.422993,0.73286 c 0.5251,0.90956 1.185324,1.74288 1.855366,2.58277 -1.062406,-0.16032 -2.113998,-0.31533 -3.164302,-0.31531 l -0.846167,8e-5 c -9.4e-5,1.18108 -3.2e-5,2.36215 2e-5,3.54323 l 0.846091,2e-5 c 1.064684,3e-5 2.130765,-0.15916 3.199957,-0.33607 -0.687638,0.83739 -1.35844,1.68102 -1.62462,2.14207 z"
           inkscape:connector-curvature="0"
           sodipodi:nodetypes="ccccccccccccccccccccccccccccccc"
           inkscape:label="star_left"
           style="fill:#14b967;fill-opacity:1;stroke:none;stroke-width:0.04882797" />
        <path
           id="path6099-3-7"
           d="m 28.732239,343.96216 c 1.022851,0.59054 2.045702,1.18109 3.068553,1.77163 l 0.423101,-0.73283 c 0.532365,-0.92203 0.927589,-1.92485 1.309002,-2.93903 0.38148,1.01431 0.776542,2.01726 1.308959,2.93929 l 0.423069,0.73273 c 1.022897,-0.59045 2.045715,-1.18102 3.068536,-1.77159 l -0.423068,-0.73273 c -0.525088,-0.90947 -1.185081,-1.74271 -1.854955,-2.58255 1.062223,0.1602 2.113923,0.31546 3.164081,0.31538 l 0.846169,-7e-5 c 7.9e-5,-1.18108 3.6e-5,-2.36216 -1.1e-5,-3.54324 l -0.846095,-10e-6 c -1.064722,-1e-5 -2.130931,0.15918 -3.199962,0.33569 0.687641,-0.83769 1.358643,-1.68132 1.890938,-2.60343 l 0.423101,-0.73283 c -1.022853,-0.59054 -2.045701,-1.18108 -3.068552,-1.77163 l -0.423102,0.73284 c -0.53236,0.92207 -0.927518,1.92491 -1.309139,2.93932 -0.38155,-1.01413 -0.776919,-2.01686 -1.309306,-2.93895 l -0.422837,-0.73311 c -1.022895,0.59044 -2.045715,1.18102 -3.068538,1.77159 l 0.422992,0.73286 c 0.525101,0.90956 1.185326,1.74288 1.855366,2.58277 -1.062407,-0.16032 -2.113997,-0.31533 -3.164302,-0.31531 l -0.846166,8e-5 c -7.9e-5,1.18108 -3.4e-5,2.36215 2e-5,3.54323 l 0.846089,2e-5 c 1.064685,3e-5 2.130766,-0.15916 3.199958,-0.33607 -0.687638,0.83739 -1.35844,1.68102 -1.62462,2.14207 z"
           inkscape:connector-curvature="0"
           sodipodi:nodetypes="ccccccccccccccccccccccccccccccc"
           inkscape:label="star_right"
           style="fill:#808080;fill-opacity:1;stroke:none;stroke-width:0.04882797" />
        <path
           inkscape:label="star_top"
           id="path6115-9-1"
           d="m 22.199156,332.64658 c 1.022852,0.59055 2.045703,1.18109 3.068554,1.77164 l 0.423101,-0.73284 c 0.532365,-0.92203 0.927588,-1.92484 1.309001,-2.93902 0.38148,1.01431 0.776543,2.01726 1.308962,2.93929 l 0.423068,0.73272 c 1.022895,-0.59044 2.045712,-1.18102 3.068534,-1.77159 l -0.423069,-0.73272 c -0.525087,-0.90948 -1.185079,-1.74271 -1.854954,-2.58256 1.062225,0.16021 2.113925,0.31546 3.16408,0.31539 l 0.846173,-8e-5 c 7.6e-5,-1.18108 3.4e-5,-2.36215 -1.5e-5,-3.54323 l -0.846095,-2e-5 c -1.064719,0 -2.13093,0.15918 -3.199959,0.33569 0.687639,-0.83768 1.358641,-1.68131 1.890936,-2.60342 l 0.423101,-0.73283 c -1.022851,-0.59054 -2.045701,-1.18109 -3.068552,-1.77163 l -0.423102,0.73283 c -0.53236,0.92208 -0.927516,1.92491 -1.309139,2.93933 -0.38155,-1.01413 -0.77692,-2.01687 -1.309305,-2.93895 l -0.422836,-0.73312 c -1.022898,0.59044 -2.045717,1.18103 -3.068541,1.7716 l 0.422994,0.73285 c 0.5251,0.90957 1.185324,1.74288 1.855366,2.58278 -1.062406,-0.16032 -2.113998,-0.31534 -3.164302,-0.31532 l -0.846167,8e-5 c -7.9e-5,1.18108 -3.2e-5,2.36216 2e-5,3.54323 l 0.84609,3e-5 c 1.064684,2e-5 2.130765,-0.15917 3.199957,-0.33608 -0.687637,0.8374 -1.35844,1.68103 -1.624619,2.14207 z"
           inkscape:connector-curvature="0"
           sodipodi:nodetypes="ccccccccccccccccccccccccccccccc"
           style="fill:#b3b3b3;fill-opacity:1;stroke:none;stroke-width:0.04882797" />
      </g>
    </g>
  </g>
  <g
     inkscape:groupmode="layer"
     id="layer3"
     inkscape:label="text"
     style="display:inline">
    <text
       xml:space="preserve"
       style="font-style:normal;font-variant:normal;font-weight:normal;font-stretch:normal;font-size:1.76388884px;line-height:125%;font-family:'Clear Sans';-inkscape-font-specification:'Clear Sans';letter-spacing:0px;word-spacing:0px;fill:#ffffff;fill-opacity:1;stroke:none;stroke-width:0.26458332px;stroke-linecap:butt;stroke-linejoin:miter;stroke-opacity:1"
       x="33.871052"
       y="63.971802"
       id="text57"><tspan
         sodipodi:role="line"
         id="tspan55"
         x="33.871052"
         y="63.971802"
         style="font-style:normal;font-variant:normal;font-weight:normal;font-stretch:normal;font-size:1.76388884px;font-family:'Clear Sans';-inkscape-font-specification:'Clear Sans';fill:#ffffff;stroke-width:0.26458332px">foss-ag.de</tspan></text>
  </g>
  <g
     inkscape:groupmode="layer"
     id="layer4"
     inkscape:label="beschnitt_rund"
     style="display:inline"
     sodipodi:insensitive="true">
    <circle
       style="fill:none;fill-opacity:1;stroke:#b8143d;stroke-width:0.08819444;stroke-miterlimit:4;stroke-dasharray:none;stroke-opacity:1"
       id="path67"
       cx="37.999985"
       cy="38.000019"
       r="31.867693" />
    <circle
       r="27.955889"
       cy="38.000019"
       cx="37.999985"
       id="circle877"
       style="fill:none;fill-opacity:1;stroke:#ffcc00;stroke-width:0.08819444;stroke-miterlimit:4;stroke-dasharray:none;stroke-opacity:1" />
  </g>
</svg>
